<svg version="1.2" xmlns="http://www.w3.org/2000/svg" viewBox="0 0 259 114" width="259" height="114">
	<title>u1-ui-logo-svg</title>
	<style>
		.s0 { fill: #532b6e } 
		.s1 { fill: #7e40a9 } 
	</style>
	<path id="&lt;u1&gt; UI " class="s0" d="m35.5 77.4l-10.8 10.5-24.4-24.5 24.4-24.4 10.8 10.5-12.4 13.9zm223.3-13.9l-24.5 24.4-10.8-10.5 12.5-13.9-12.5-14 10.8-10.5z"/>
	<path id="&lt;u1&gt; UI " class="s1" d="m141.7 108.3v0.2q0 1.6-1.9 3-1.9 1.2-4.5 1.2l-29 0.1q-3.3-0.1-4.9-2-1.7-1.8-2.1-4.6-3.5 3.5-9.2 5.6-5.6 1.9-12.1 1.9-8.1 0-14.9-2.9-6.6-3-8.5-7.8-0.5-1.2-0.9-2.3-0.3-1.2-0.5-2.6-0.1-0.8-0.3-1.6 0-1 0-1.7v-65.3l-1.6-0.9q-2.7 0-4.7-1.2-1.8-1.3-1.8-3.3 0-1.8 1.8-3 2-1.3 4.7-1.3h26.2q5.3 0 6.9 2.7 1.8 2.5 1.8 7v67q0 0.3 0.2 0.7 0.1 0.3 0.4 0.8 0.7 1.2 2.6 2.2 1.9 1.1 4 1 0.5 0 0.9 0 0.5-0.1 0.9-0.2 1.4-0.5 2.6-1.7 1.2-1.2 1.2-3.1v-66.7l-1.8-0.7q-2.5 0-4.4-1.4-1.9-1.3-1.9-3 0-1.9 1.9-3.3 1.9-1.3 4.4-1.3h27.9q5.5 0 7 2.2 1.5 2.1 1.7 4.7 0 0.4 0 0.9 0 0.4 0 0.9 0 0.3 0 0.6 0 0.1 0 0.4v73.5l1.5 1q2.7 0 4.5 1.3 1.9 1.2 1.9 3zm72.6-0.1v0.1q0 1.8-1.9 3.2-2 1.3-4.5 1.3l-40.5 0.2q-2.9-0.2-4.7-1.5-1.8-1.4-1.8-3.3 0-1.5 1.8-2.9 1.8-1.3 4.7-1.3l1.3-1v-74.5h-17.4q-2.7 0-4.6-1.2-1.9-1.3-1.8-3.3-0.1-1 1-1.8 1.1-0.8 2.4-1.3 0.9-0.5 1.7-0.6 0.9-0.3 1.3-0.5l43.8-18.6q1.2-0.4 2.3-0.6 1-0.3 1.9-0.3 3.2 0 5 2 1.9 1.9 1.9 4.9v95.8l1.7 1q2.5 0 4.5 1.3 1.9 1.4 1.9 2.9z"/>
</svg>
