<svg version="1.2" baseProfile="tiny-ps" xmlns="http://www.w3.org/2000/svg" viewBox="0 0 440 116" width="440" height="116">
	<title>u1-ui-logo</title>
	<path id="&lt;u1&gt; UI " fill="#532b6e" aria-label="&lt;u1&gt; UI"  d="M35.5 77.4L35.5 77.4L24.7 87.9L0.25 63.45L24.7 39L35.5 49.5L23.05 63.45L35.5 77.4ZM258.85 63.45L258.85 63.45L234.4 87.9L223.6 77.4L236.05 63.45L223.6 49.5L234.4 39L258.85 63.45Z" />
	<path id="&lt;u1&gt; UI " fill="#7e40a9" aria-label="&lt;u1&gt; UI"  d="M141.7 108.3L141.7 108.45Q141.7 110.1 139.75 111.45Q137.95 112.65 135.25 112.65L106.3 112.8Q103 112.65 101.35 110.85Q99.7 109.05 99.25 106.2Q95.8 109.65 90.1 111.75Q84.55 113.7 77.95 113.7Q69.85 113.7 63.1 110.85Q56.5 107.85 54.55 103.05Q54.1 101.85 53.65 100.65Q53.35 99.45 53.2 98.1Q53.05 97.35 52.9 96.45Q52.9 95.55 52.9 94.8L52.9 29.55L51.25 28.65Q48.55 28.65 46.6 27.45Q44.8 26.1 44.8 24.15Q44.8 22.35 46.6 21.15Q48.55 19.8 51.25 19.8L77.5 19.8Q82.75 19.8 84.4 22.5Q86.2 25.05 86.2 29.55L86.2 96.45Q86.2 96.75 86.35 97.2Q86.5 97.5 86.8 97.95Q87.55 99.15 89.35 100.2Q91.3 101.25 93.4 101.25Q93.85 101.25 94.3 101.25Q94.75 101.1 95.2 100.95Q96.55 100.5 97.75 99.3Q98.95 98.1 98.95 96.15L98.95 29.55L97.15 28.8Q94.75 28.8 92.8 27.45Q90.85 26.1 90.85 24.45Q90.85 22.5 92.8 21.15Q94.75 19.8 97.15 19.8L125.05 19.8Q130.6 19.8 132.1 22.05Q133.6 24.15 133.75 26.7Q133.75 27.15 133.75 27.6Q133.75 28.05 133.75 28.5Q133.75 28.8 133.75 29.1Q133.75 29.25 133.75 29.55L133.75 103.05L135.25 103.95Q137.95 103.95 139.75 105.3Q141.7 106.5 141.7 108.3ZM214.3 108.15L214.3 108.3Q214.3 110.1 212.35 111.45Q210.4 112.8 207.85 112.8L167.35 112.95Q164.5 112.8 162.7 111.45Q160.9 110.1 160.9 108.15Q160.9 106.65 162.7 105.3Q164.5 103.95 167.35 103.95L168.7 103.05L168.7 28.5L151.3 28.5Q148.6 28.5 146.65 27.3Q144.85 25.95 144.85 24Q144.85 22.95 145.9 22.2Q146.95 21.45 148.3 20.85Q149.2 20.4 149.95 20.25Q150.85 19.95 151.3 19.8L195.1 1.2Q196.3 0.75 197.35 0.6Q198.4 0.3 199.3 0.3Q202.45 0.3 204.25 2.25Q206.2 4.2 206.2 7.2L206.2 103.05L207.85 103.95Q210.4 103.95 212.35 105.3Q214.3 106.65 214.3 108.15Z" />
	<path id="&lt;u1&gt; UI " fill="#64a9df" aria-label="&lt;u1&gt; UI"  d="M385 6.15L385 6.15Q385 8.1 383.05 9.45Q381.25 10.65 378.55 10.65L377.05 11.55L377.05 94.5Q377.05 103.2 365.35 109.35Q353.65 115.5 337.3 115.5Q320.8 115.5 308.95 109.35Q297.25 103.2 297.25 94.5L297.25 11.55L295.75 10.65Q293.05 10.65 291.1 9.45Q289.3 8.1 289.3 6.15Q289.3 4.35 291.1 3.15Q293.05 1.8 295.75 1.8L336.25 1.8Q338.8 1.8 340.6 3.15Q342.55 4.35 342.55 6.15Q342.55 8.1 340.6 9.45Q338.8 10.65 336.25 10.65L334.6 11.55L334.6 90.3Q334.6 93.9 338.65 96.45Q342.7 99 348.25 99Q353.8 99 357.85 96.45Q362.05 93.9 362.05 90.45L362.05 11.55L360.55 10.65Q357.85 10.65 355.9 9.45Q354.1 8.1 354.1 6.15Q354.1 4.35 355.9 3.15Q357.85 1.8 360.55 1.8L378.55 1.8Q381.25 1.8 383.05 3.15Q385 4.35 385 6.15ZM440.05 108L440.05 108.15Q440.05 109.95 438.1 111.3Q436.15 112.65 433.6 112.65L393.1 112.8Q390.25 112.65 388.45 111.3Q386.65 109.95 386.65 108Q386.65 106.5 388.45 105.15Q390.25 103.8 393.1 103.8L394.45 103.05L394.45 11.55L392.95 10.65Q390.25 10.65 388.3 9.45Q386.5 8.1 386.5 6.15Q386.5 4.35 388.3 3.15Q390.25 1.95 392.95 1.95L433.3 1.95Q436 1.95 437.8 3.15Q439.75 4.35 439.75 6.15Q439.75 8.1 437.8 9.45Q436 10.65 433.3 10.65L431.8 11.55L431.8 103.05L433.6 103.8Q436.15 103.8 438.1 105.15Q440.05 106.5 440.05 108Z" />
</svg>
